<svg width="40" height="40" viewBox="0 0 40 40" fill="none" xmlns="http://www.w3.org/2000/svg">
<path d="M33.3333 23.3333H26.6666C24.8257 23.3333 23.3333 24.8257 23.3333 26.6666V33.3333C23.3333 35.1743 24.8257 36.6666 26.6666 36.6666H33.3333C35.1743 36.6666 36.6666 35.1743 36.6666 33.3333V26.6666C36.6666 24.8257 35.1743 23.3333 33.3333 23.3333Z" stroke="#64FDDC" stroke-width="3.33333" stroke-linecap="round" stroke-linejoin="round"/>
<path d="M13.3333 3.33331H6.66665C4.8257 3.33331 3.33331 4.8257 3.33331 6.66665V13.3333C3.33331 15.1743 4.8257 16.6666 6.66665 16.6666H13.3333C15.1743 16.6666 16.6666 15.1743 16.6666 13.3333V6.66665C16.6666 4.8257 15.1743 3.33331 13.3333 3.33331Z" stroke="#64FDDC" stroke-width="3.33333" stroke-linecap="round" stroke-linejoin="round"/>
<path d="M11.6667 23.3333V25C11.6667 25.884 12.0179 26.7319 12.643 27.357C13.2681 27.9821 14.116 28.3333 15 28.3333H16.6667" stroke="#64FDDC" stroke-width="3.33333" stroke-linecap="round" stroke-linejoin="round"/>
<path d="M23.3333 11.6667H25C25.884 11.6667 26.7319 12.0179 27.357 12.643C27.9821 13.2681 28.3333 14.116 28.3333 15V16.6667" stroke="#64FDDC" stroke-width="3.33333" stroke-linecap="round" stroke-linejoin="round"/>
</svg>
