<svg width="40" height="40" viewBox="0 0 40 40" fill="none" xmlns="http://www.w3.org/2000/svg">
<path d="M29.9999 34.9999C29.9999 31.4637 28.5952 28.0723 26.0947 25.5718C23.5942 23.0713 20.2028 21.6666 16.6666 21.6666C13.1304 21.6666 9.73898 23.0713 7.23849 25.5718C4.73801 28.0723 3.33325 31.4637 3.33325 34.9999" stroke="#64FDDC" stroke-width="3.33333" stroke-linecap="round" stroke-linejoin="round"/>
<path d="M16.6666 21.6666C21.269 21.6666 24.9999 17.9356 24.9999 13.3333C24.9999 8.7309 21.269 4.99994 16.6666 4.99994C12.0642 4.99994 8.33325 8.7309 8.33325 13.3333C8.33325 17.9356 12.0642 21.6666 16.6666 21.6666Z" stroke="#64FDDC" stroke-width="3.33333" stroke-linecap="round" stroke-linejoin="round"/>
<path d="M36.6667 33.3333C36.6667 27.7166 33.3333 22.5 30 20C31.0957 19.1779 31.9719 18.0984 32.5509 16.8571C33.13 15.6157 33.3942 14.2507 33.32 12.883C33.2459 11.5152 32.8357 10.1868 32.1258 9.01529C31.4159 7.84381 30.4282 6.8654 29.25 6.16663" stroke="#64FDDC" stroke-width="3.33333" stroke-linecap="round" stroke-linejoin="round"/>
</svg>
